# xmcd
#
# Track frame offsets:
#	150
#	12303
#	25929
#	38347
#	50515
#	64827
#	77764
#	90456
#	105280
#	118616
#	131738
#	144957
#	158131
#	171349
#	184841
#	197026
#	209420
#	223381
#	238021
#	251290
#
# Disc length: 3539 seconds
# Revision: 2
# Processed by: cddbd v1.5.2PL0 Copyright (c) Steve Scherf et al.
# Submitted via: dBpowerAMP V12.0
#
DISCID=120dd114
DTITLE=Ma Rainey - Mother Of The Blues, 1923-1928
DYEAR=1997
DGENRE=Blues
TTITLE0=Slave To The Blues
TTITLE1=Yonder Comes The Blues
TTITLE2=Titanic Man Blues: 1
TTITLE3=Titanic Man Blues: 2
TTITLE4=Chain Gang Blues
TTITLE5=Bessemer Bound Blues: 1
TTITLE6=Bessemer Bound Blues: 2
TTITLE7=Oh My Babe Blues
TTITLE8=Wring And Twisting Blues
TTITLE9=Stack O'lee Blues
TTITLE10=Broken Hearted Blues
TTITLE11=Jealousy Blues
TTITLE12=Seeking Blues: 1
TTITLE13=Seeking Blues: 2
TTITLE14=Mountain Jack Blues: 1
TTITLE15=Mountain Jack Blues: 3
TTITLE16=Down In The Basement
TTITLE17=Sissy Blues
TTITLE18=Broken Soul Blues
TTITLE19=June In January
EXTD=
EXTT0=
EXTT1=
EXTT2=
EXTT3=
EXTT4=
EXTT5=
EXTT6=
EXTT7=
EXTT8=
EXTT9=
EXTT10=
EXTT11=
EXTT12=
EXTT13=
EXTT14=
EXTT15=
EXTT16=
EXTT17=
EXTT18=
EXTT19=
PLAYORDER=
